<svg fill="none" height="32" width="32" viewBox="0 0 32 32" xmlns="http://www.w3.org/2000/svg">
    <path fill="#ffffff" d="M12.534 21.323h-2.22c-3.347 0-5.748-2.013-5.748-5.015h11.933c.618 0 1.055.402 1.055 1.025v12.007c-2.983 0-5.02-2.416-5.02-5.784zm5.894-5.967h-2.22c-3.346 0-5.747-2.013-5.747-5.015h11.932c.618 0 1.055.402 1.055 1.025v12.007c-2.983 0-5.02-2.416-5.02-5.784zm5.93-5.93h-2.22c-3.347 0-5.748-2.05-5.748-5.052h11.933c.618 0 1.019.439 1.019 1.025v12.007c-2.983 0-4.984-2.416-4.984-5.784z"></path>
</svg>